# xmcd
#
# Track frame offsets: 
#        182
#        15170
#        29582
#        43395
#        54897
#        69657
#        82625
#        96947
#        106712
#        118325
#        146207
#        156417
#        178660
#        200242
#        216515
#        236425
#        260135
#        279912
#
# Disc length: 4013 seconds
#
# Revision: 1
# Processed by: cddbd v1.5.2PL0 Copyright (c) Steve Scherf et al.
# Submitted via: ExactAudioCopyFreeDBPlugin 1.0
#
DISCID=0a0fab12
DTITLE=Willie Dixon - I'm The Blues
DYEAR=1992
DGENRE=Blues
TTITLE0=Pain In My Heart
TTITLE1=My Babe
TTITLE2=Walking The Blues
TTITLE3=Built For Comfort
TTITLE4=Nervous
TTITLE5=Back Home In Indiana
TTITLE6=Alone
TTITLE7=29 Ways
TTITLE8=Wrinkles
TTITLE9=Back Door Man
TTITLE10=Good Understanding
TTITLE11=Spoonful
TTITLE12=I'm Your Hoochie Coochie Man
TTITLE13=The Little Red Rooster
TTITLE14=Weak Brain, Narrow Mind
TTITLE15=Blues Anytime
TTITLE16=Crazy For My Baby
TTITLE17=Sittin' And Cryin The Blues
EXTD=
EXTT0=
EXTT1=
EXTT2=
EXTT3=
EXTT4=
EXTT5=
EXTT6=
EXTT7=
EXTT8=
EXTT9=
EXTT10=
EXTT11=
EXTT12=
EXTT13=
EXTT14=
EXTT15=
EXTT16=
EXTT17=
PLAYORDER=
